<svg width="96" height="96" viewBox="0 0 96 96" fill="none" xmlns="http://www.w3.org/2000/svg">
<g clip-path="url(#clip0_2616_415)">
<path fill-rule="evenodd" clip-rule="evenodd" d="M46.8461 39.5385C42.8102 39.5385 39.5385 42.8102 39.5385 46.8461C39.5385 50.8821 42.8102 54.1538 46.8461 54.1538C50.8821 54.1538 54.1538 50.8821 54.1538 46.8461C54.1538 42.8102 50.8821 39.5385 46.8461 39.5385ZM38 46.8461C38 41.9606 41.9606 38 46.8461 38C51.7317 38 55.6923 41.9606 55.6923 46.8461C55.6923 51.7317 51.7317 55.6923 46.8461 55.6923C41.9606 55.6923 38 51.7317 38 46.8461Z" fill="#E63036"/>
<path fill-rule="evenodd" clip-rule="evenodd" d="M52.0136 52.0138C52.314 51.7134 52.801 51.7134 53.1014 52.0138L57.7745 56.6868C58.0749 56.9872 58.0749 57.4743 57.7745 57.7747C57.4741 58.0751 56.9871 58.0751 56.6867 57.7747L52.0136 53.1016C51.7132 52.8012 51.7132 52.3142 52.0136 52.0138Z" fill="#E63036"/>
</g>
<defs>
<clipPath id="clip0_2616_415">
<rect width="20" height="20" fill="white" transform="translate(38 38)"/>
</clipPath>
</defs>
</svg>
