<svg width="36" height="36" viewBox="0 0 36 36" fill="none" xmlns="http://www.w3.org/2000/svg">
<path d="M8.83635 25.9209C8.27878 25.9209 8 25.8089 8 25.5847C8 25.5452 8.00648 25.5056 8.01945 25.4661C8.03242 25.4134 8.04538 25.3606 8.05835 25.3079L12.668 12.3164C12.7328 12.1055 12.9921 12 13.446 12H14.01C14.4639 12 14.7232 12.1055 14.788 12.3164L19.3977 25.3277C19.4366 25.42 19.456 25.5056 19.456 25.5847C19.456 25.8089 19.1772 25.9209 18.6197 25.9209H18.4641C18.2696 25.9209 18.101 25.9011 17.9584 25.8616C17.8157 25.8089 17.725 25.7232 17.6861 25.6045L16.5385 22.3616H10.8202L9.71159 25.6045C9.67269 25.7232 9.58193 25.8089 9.43929 25.8616C9.29666 25.9011 9.1281 25.9209 8.9336 25.9209H8.83635ZM11.3648 20.8588H16.0134L13.9711 14.9661C13.9193 14.7815 13.8739 14.5904 13.835 14.3927C13.7961 14.1949 13.7637 14.0038 13.7377 13.8192H13.6988C13.6599 14.0038 13.6145 14.1949 13.5627 14.3927C13.5238 14.5904 13.4719 14.7815 13.4071 14.9661L11.3648 20.8588Z" fill="black"/>
<path d="M23.0014 26C22.0548 26 21.2638 25.7627 20.6285 25.2881C19.9931 24.8004 19.6754 24.049 19.6754 23.0339C19.6754 22.2034 19.8699 21.5508 20.2589 21.0763C20.6479 20.5885 21.1601 20.2326 21.7955 20.0085C22.4308 19.7712 23.1246 19.6196 23.8766 19.5537C24.6416 19.4878 25.3937 19.4482 26.1328 19.435V18.5056C26.1328 18.0574 25.9772 17.6686 25.666 17.339C25.3548 17.0094 24.7972 16.8446 23.9933 16.8446C23.4098 16.8446 22.8976 16.9171 22.4568 17.0621C22.0289 17.194 21.6853 17.3324 21.4259 17.4774C21.1796 17.6092 21.024 17.6751 20.9591 17.6751C20.8684 17.6751 20.7711 17.6092 20.6674 17.4774C20.5636 17.3456 20.4729 17.2006 20.3951 17.0424C20.3173 16.871 20.2784 16.7524 20.2784 16.6864C20.2784 16.5151 20.4469 16.3305 20.7841 16.1328C21.1212 15.935 21.5686 15.7702 22.1261 15.6384C22.6837 15.4934 23.2866 15.4209 23.935 15.4209C24.7389 15.4209 25.4261 15.5461 25.9967 15.7966C26.5672 16.0339 27.0016 16.3832 27.2998 16.8446C27.611 17.306 27.7666 17.8663 27.7666 18.5254V22.9548C27.7666 23.4953 27.7861 23.9435 27.8249 24.2994C27.8638 24.6554 27.9028 24.9256 27.9417 25.1102C27.9806 25.2947 28 25.4068 28 25.4463C28 25.5386 27.9546 25.6177 27.8639 25.6836C27.7861 25.7363 27.6888 25.7825 27.5721 25.822C27.4554 25.8484 27.3387 25.8682 27.222 25.8814C27.1053 25.8945 27.0145 25.9011 26.9497 25.9011C26.7941 25.9011 26.6709 25.8286 26.5802 25.6836C26.5024 25.5254 26.4375 25.3409 26.3857 25.1299C26.3468 24.9058 26.3079 24.7015 26.269 24.5169C26.0226 24.7938 25.7373 25.0443 25.4132 25.2684C25.089 25.4925 24.7259 25.6704 24.324 25.8023C23.935 25.9341 23.4941 26 23.0014 26ZM23.0792 24.5565C23.7923 24.5565 24.3823 24.4181 24.8491 24.1412C25.3159 23.8644 25.7438 23.548 26.1328 23.1921V20.8588C25.6271 20.8588 25.102 20.8785 24.5574 20.9181C24.0128 20.9444 23.5006 21.0169 23.0208 21.1356C22.5411 21.2542 22.1521 21.4586 21.8538 21.7486C21.5686 22.0254 21.4259 22.4209 21.4259 22.935C21.4259 23.4623 21.5621 23.8644 21.8344 24.1412C22.1196 24.4181 22.5346 24.5565 23.0792 24.5565Z" fill="black"/>
</svg>
